<?xml version="1.0" encoding="UTF-8"?>
<svg width="94px" height="96px" viewBox="0 0 94 96" version="1.1" xmlns="http://www.w3.org/2000/svg" xmlns:xlink="http://www.w3.org/1999/xlink" xmlns:sketch="http://www.bohemiancoding.com/sketch/ns">
    <!-- Generator: Sketch 3.3 (11970) - http://www.bohemiancoding.com/sketch -->
    <title>Fill 180</title>
    <desc>Created with Sketch.</desc>
    <defs></defs>
    <g id="Page-1" stroke="none" stroke-width="1" fill="none" fill-rule="evenodd" sketch:type="MSPage">
        <path d="M89.886,25.333 C91.914,28.85 85.254,36.501 75.009,42.413 C69.672,45.497 64.411,47.5 60.308,48.213 C63.186,47.125 62.821,47.666 69.543,43.783 C76.268,39.901 83.521,32.375 81.736,29.292 C79.958,26.205 68.247,29.629 63.091,32.604 C57.936,35.582 62.96,32.681 62.896,32.721 C64.369,31.674 65.962,30.65 67.656,29.674 C77.901,23.759 87.854,21.814 89.886,25.333 L89.886,25.333 Z M93.352,66.196 C91.961,70.014 81.82,69.828 70.704,65.781 C64.91,63.672 59.992,60.932 56.811,58.247 C59.493,59.752 58.846,59.817 66.145,62.473 C73.436,65.129 83.865,65.849 85.082,62.5 C86.301,59.153 76.149,52.383 70.556,50.349 C64.965,48.31 70.412,50.297 70.341,50.271 C72.092,50.729 73.901,51.29 75.739,51.958 C86.852,56.004 94.738,62.382 93.352,66.196 L93.352,66.196 Z M64.274,95.118 C60.457,96.508 54.081,88.62 50.036,77.504 C47.927,71.711 46.866,66.182 46.876,62.02 C47.449,65.041 46.983,64.588 49.638,71.883 C52.291,79.178 58.444,87.631 61.794,86.412 C65.14,85.193 63.798,73.063 61.766,67.467 C59.727,61.875 61.711,67.329 61.687,67.259 C62.458,68.889 63.191,70.641 63.861,72.475 C67.905,83.59 68.09,93.73 64.274,95.118 L64.274,95.118 Z M23.427,91.437 C19.91,89.407 21.854,79.452 27.768,69.208 C30.853,63.868 34.409,59.5 37.602,56.833 C35.653,59.215 35.702,58.564 31.82,65.29 C27.938,72.012 25.417,82.155 28.505,83.934 C31.588,85.717 40.019,76.895 42.994,71.741 C45.971,66.586 43.07,71.612 43.108,71.544 C42.354,73.185 41.487,74.871 40.511,76.563 C34.595,86.808 26.945,93.468 23.427,91.437 L23.427,91.437 Z M-0.005,57.779 C-0.71,53.78 8.164,48.87 19.813,46.814 C25.887,45.746 31.513,45.662 35.612,46.396 C32.536,46.434 33.064,46.051 25.418,47.398 C17.775,48.749 8.382,53.338 9.001,56.847 C9.621,60.355 21.797,61.141 27.661,60.107 C33.523,59.075 27.808,60.083 27.884,60.067 C26.141,60.545 24.292,60.964 22.368,61.302 C10.719,63.356 0.7,61.78 -0.005,57.779 L-0.005,57.779 Z M10.714,18.195 C13.325,15.083 22.791,18.724 31.853,26.331 C36.575,30.292 40.258,34.55 42.331,38.16 C40.325,35.828 40.955,35.988 35.007,31 C29.062,26.01 19.51,21.766 17.22,24.495 C14.929,27.226 22.154,37.058 26.715,40.884 C31.274,44.711 26.829,40.98 26.888,41.027 C25.402,40 23.894,38.853 22.396,37.597 C13.335,29.995 8.103,21.306 10.714,18.195 L10.714,18.195 Z M47.929,0.961 C51.992,0.961 55.286,10.553 55.286,22.38 C55.286,28.546 54.39,34.106 52.958,38.013 C53.455,34.979 53.736,35.564 53.736,27.801 C53.736,20.037 50.849,9.992 47.283,9.992 C43.721,9.992 40.833,21.851 40.833,27.801 L40.833,28.026 C40.663,26.229 40.574,24.337 40.574,22.38 C40.574,10.553 43.865,0.961 47.929,0.961 L47.929,0.961 Z" id="Fill-180" fill="#278AA0" sketch:type="MSShapeGroup"></path>
    </g>
</svg>